<svg xmlns="http://www.w3.org/2000/svg" xml:space="preserve" class="ionicon" viewBox="0 0 512 512"><rect width="512" height="512" x=".996" y=".996" rx="32" ry="32" style="fill:#6366f1;fill-opacity:1;stroke:#fff;stroke-width:1.99222;paint-order:fill markers stroke"/><path fill="none" stroke="currentColor" stroke-linecap="round" stroke-linejoin="round" stroke-width="32" d="M344 144c-3.92 52.87-44 96-88 96s-84.15-43.12-88-96c-4-55 35-96 88-96s92 42 88 96z" style="fill:none;stroke:#fff"/><path fill="none" stroke="currentColor" stroke-miterlimit="10" stroke-width="32" d="M256 304c-87 0-175.3 48-191.64 138.6C62.39 453.52 68.57 464 80 464h352c11.44 0 17.62-10.48 15.65-21.4C431.3 352 343 304 256 304Z" style="fill:none;stroke:#fff"/><rect width="256" height="256" x="47.985" y="224" rx="16" ry="16" style="fill:#fff;stroke-width:8;paint-order:fill markers stroke;stroke:#000;stroke-opacity:1;stroke-dasharray:none"/><g transform="matrix(.5 0 0 .5 47.985 224)"><rect width="80" height="80" x="336" y="336" rx="8" ry="8"/><rect width="64" height="64" x="272" y="272" rx="8" ry="8"/><rect width="64" height="64" x="416" y="416" rx="8" ry="8"/><rect width="48" height="48" x="432" y="272" rx="8" ry="8"/><rect width="48" height="48" x="272" y="432" rx="8" ry="8"/><rect width="80" height="80" x="336" y="96" rx="8" ry="8"/><rect width="176" height="176" x="288" y="48" fill="none" stroke="currentColor" stroke-linecap="round" stroke-linejoin="round" stroke-width="32" rx="16" ry="16"/><rect width="80" height="80" x="96" y="96" rx="8" ry="8"/><rect width="176" height="176" x="48" y="48" fill="none" stroke="currentColor" stroke-linecap="round" stroke-linejoin="round" stroke-width="32" rx="16" ry="16"/><rect width="80" height="80" x="96" y="336" rx="8" ry="8"/><rect width="176" height="176" x="48" y="288" fill="none" stroke="currentColor" stroke-linecap="round" stroke-linejoin="round" stroke-width="32" rx="16" ry="16"/></g></svg>